<?xml version="1.0" encoding="UTF-8"?>
<svg version="1.1" xmlns="http://www.w3.org/2000/svg" width="1024" height="1024">
<path d="M0 0 C1.91182079 1.55162267 3.37972942 3.12656214 5 5 C5.78375 4.236875 6.5675 3.47375 7.375 2.6875 C12.83949804 -1.81493853 19.25237724 -3.38085225 26.25 -2.875 C33.16546675 -1.83767999 37.19176875 0.7856688 41.703125 5.98828125 C45.38121553 11.69375301 45.2695136 17.45373132 45.1953125 23.9921875 C45.1924826 24.93812775 45.18965271 25.88406799 45.18673706 26.8586731 C45.17558932 29.86424694 45.15049465 32.86951702 45.125 35.875 C45.11496321 37.91926651 45.10583859 39.96353772 45.09765625 42.0078125 C45.07566767 47.00532444 45.04117509 52.0026108 45 57 C42.18743719 57.02684312 39.37512759 57.04676188 36.5625 57.0625 C35.76005859 57.07087891 34.95761719 57.07925781 34.13085938 57.08789062 C32.08704779 57.0965143 30.04316098 57.0522815 28 57 C25.97265735 54.97265735 26.86300693 50.77220194 26.859375 47.984375 C26.84104133 46.32420509 26.8214705 44.66404847 26.80078125 43.00390625 C26.77184095 40.3791681 26.75000098 37.755279 26.74951172 35.13037109 C26.74617142 32.60176769 26.71158196 30.07513555 26.671875 27.546875 C26.6789447 26.76648865 26.6860144 25.98610229 26.69329834 25.18206787 C26.60029749 21.00570204 26.30392736 19.39929723 23.68457031 15.95800781 C21.06504653 13.62468488 21.06504653 13.62468488 17.375 14.125 C15.23088141 14.6808826 13.10133886 15.29955371 11 16 C9.52472988 19.9837465 9.77259724 24.28418264 9.68359375 28.484375 C9.66281265 29.29996887 9.64203156 30.11556274 9.62062073 30.95587158 C9.55538703 33.55383105 9.49636232 36.15188913 9.4375 38.75 C9.39428986 40.514333 9.35067478 42.27865613 9.30664062 44.04296875 C9.19973255 48.36187884 9.09839173 52.68088784 9 57 C6.18743719 57.02684312 3.37512759 57.04676188 0.5625 57.0625 C-0.64116211 57.07506836 -0.64116211 57.07506836 -1.86914062 57.08789062 C-3.91295221 57.0965143 -5.95683902 57.0522815 -8 57 C-10.03838825 54.96161175 -9.23312782 50.75535246 -9.28125 47.94921875 C-9.29965942 47.13886673 -9.31806885 46.32851471 -9.33703613 45.49360657 C-9.3959679 42.8916471 -9.44867235 40.28961992 -9.5 37.6875 C-9.56773253 34.27460318 -9.64149472 30.86191169 -9.71875 27.44921875 C-9.73232544 26.66367111 -9.74590088 25.87812347 -9.7598877 25.06877136 C-9.83947639 21.5589337 -10.06271949 18.37988768 -11 15 C-16.56477526 13.84697526 -16.56477526 13.84697526 -21.875 15.25 C-24.20937224 17.00026237 -24.20937224 17.00026237 -26 20 C-26.24097687 22.82437444 -26.3729132 25.55877174 -26.4140625 28.38671875 C-26.43342865 29.20372757 -26.4527948 30.02073639 -26.4727478 30.86250305 C-26.53250352 33.47072934 -26.57891258 36.07899986 -26.625 38.6875 C-26.6631835 40.4563994 -26.70223546 42.22528028 -26.7421875 43.99414062 C-26.83820168 48.32927659 -26.92224735 52.6644996 -27 57 C-29.81256281 57.02684312 -32.62487241 57.04676188 -35.4375 57.0625 C-36.23994141 57.07087891 -37.04238281 57.07925781 -37.86914062 57.08789062 C-39.91295221 57.0965143 -41.95683902 57.0522815 -44 57 C-45.70565618 55.29434382 -45.12752055 53.09266505 -45.12939453 50.76171875 C-45.13254669 49.64385986 -45.13569885 48.52600098 -45.13894653 47.37426758 C-45.1369223 46.15763428 -45.13489807 44.94100098 -45.1328125 43.6875 C-45.13376923 42.44830811 -45.13472595 41.20911621 -45.13571167 39.93237305 C-45.13639374 37.30611719 -45.13503538 34.67995367 -45.13037109 32.05371094 C-45.12467381 28.68071286 -45.12795302 25.30779435 -45.13394356 21.93479919 C-45.1384177 18.72736323 -45.13528882 15.519937 -45.1328125 12.3125 C-45.13483673 11.0958667 -45.13686096 9.8792334 -45.13894653 8.62573242 C-45.13579437 7.50787354 -45.13264221 6.39001465 -45.12939453 5.23828125 C-45.12859894 4.24868408 -45.12780334 3.25908691 -45.12698364 2.23950195 C-45 0 -45 0 -44 -1 C-41.13732433 -1.07325168 -38.299281 -1.09238205 -35.4375 -1.0625 C-34.63119141 -1.05798828 -33.82488281 -1.05347656 -32.99414062 -1.04882812 C-30.99606244 -1.03700518 -28.99802217 -1.01906914 -27 -1 C-26.67 -0.01 -26.34 0.98 -26 2 C-25.29875 1.54625 -24.5975 1.0925 -23.875 0.625 C-15.8763103 -3.89599853 -8.13470202 -4.3566605 0 0 Z " fill="#010001" transform="translate(715,484)"/>
<path d="M0 0 C0.495 0.495 0.495 0.495 1 1 C1.66 0.01 2.32 -0.98 3 -2 C5.7885289 -2.22107787 8.34653181 -2.28107535 11.125 -2.1875 C11.87910156 -2.17396484 12.63320313 -2.16042969 13.41015625 -2.14648438 C15.27374127 -2.11109985 17.13695978 -2.05729167 19 -2 C19.11639714 6.0413798 19.20496723 14.08240142 19.25906086 22.12441826 C19.28503731 25.85961769 19.32021169 29.59423631 19.37719727 33.32910156 C19.4319507 36.94071191 19.46151017 40.55176743 19.47438622 44.16376114 C19.48354931 45.53438158 19.50144105 46.90497531 19.52865028 48.27535629 C19.71422211 58.01855531 18.72432685 65.63697718 12.11885071 73.13546753 C5.32471201 79.91336426 -2.24744149 81.14212354 -11.5625 81.375 C-20.24598991 81.1824226 -27.15822475 79.56888683 -34 74 C-38.0796748 68.97886179 -38.0796748 68.97886179 -37.8359375 65.984375 C-36.75482966 63.41800686 -35.55727635 62.67450378 -33.1875 61.25 C-32.50042969 60.82203125 -31.81335938 60.3940625 -31.10546875 59.953125 C-29 59 -29 59 -25 59 C-23.26526288 60.94125344 -21.5954349 62.94272868 -20 65 C-17.1805932 66.4097034 -14.76732774 66.16984647 -11.625 66.1875 C-10.48289062 66.20167969 -9.34078125 66.21585938 -8.1640625 66.23046875 C-5.13009383 66.00947597 -3.47315382 65.72247889 -1 64 C0.85926424 59.79219145 1.45441721 55.54652326 2 51 C1.278125 51.639375 0.55625 52.27875 -0.1875 52.9375 C-6.23430476 56.96392686 -14.95307696 56.60978559 -21.875 55.375 C-26.35346461 54.16639402 -29.48315557 51.99305909 -33 49 C-33 48.34 -33 47.68 -33 47 C-33.66 47 -34.32 47 -35 47 C-35.81837442 45.58671871 -36.62946219 44.16921654 -37.4375 42.75 C-37.88996094 41.96109375 -38.34242188 41.1721875 -38.80859375 40.359375 C-42.48424095 33.08038841 -42.15172113 22.73220134 -40.24609375 14.90234375 C-37.46814739 7.67968321 -33.2392997 1.38985601 -25.99609375 -1.9140625 C-16.43829891 -5.47122441 -9.08324127 -4.48755372 0 0 Z M-21 16 C-23.4840939 20.64417555 -23.6018949 25.83296376 -23 31 C-21.46666192 35.14001281 -19.95198943 37.9142278 -16 40 C-10.37966265 41.48461741 -7.05878838 40.82124737 -2 38 C2.09130334 33.6359431 2.29004911 29.2401318 2.21484375 23.5078125 C1.82104528 18.91111037 0.28029127 16.09739251 -3.1875 13.125 C-10.10567292 10.35773083 -15.28866748 11.65938728 -21 16 Z " fill="#000001" transform="translate(409,485)"/>
<path d="M0 0 C0.72241882 -0.0033284 1.44483765 -0.0066568 2.18914795 -0.01008606 C3.72928226 -0.01516522 5.26942764 -0.01749408 6.80957031 -0.01733398 C9.1206407 -0.0194836 11.43120412 -0.03752312 13.7421875 -0.05664062 C39.72255321 -0.15865295 39.72255321 -0.15865295 47.921875 7.16796875 C53.86230954 14.39282157 55.56302234 21.74920667 55.33984375 30.91015625 C54.40576261 38.19075133 50.73897385 44.67293782 44.921875 49.16796875 C37.72090107 53.5164355 31.10321559 53.66533154 22.859375 53.41796875 C21.70759766 53.39992188 20.55582031 53.381875 19.36914062 53.36328125 C16.55249666 53.31653197 13.73764271 53.25102032 10.921875 53.16796875 C10.92973022 54.43241821 10.92973022 54.43241821 10.93774414 55.72241211 C10.95475326 58.84024811 10.96730906 61.95806052 10.97680664 65.07592773 C10.98184557 66.42717261 10.98867677 67.77841201 10.99731445 69.12963867 C11.00939919 71.06817309 11.01457328 73.00674675 11.01953125 74.9453125 C11.02738647 76.69702759 11.02738647 76.69702759 11.03540039 78.48413086 C10.921875 81.16796875 10.921875 81.16796875 9.921875 82.16796875 C8.57920087 82.25428749 7.23213178 82.27503348 5.88671875 82.265625 C5.07783203 82.26240234 4.26894531 82.25917969 3.43554688 82.25585938 C2.58541016 82.24748047 1.73527344 82.23910156 0.859375 82.23046875 C0.00537109 82.22595703 -0.84863281 82.22144531 -1.72851562 82.21679688 C-3.84508163 82.20497248 -5.96161185 82.18703644 -8.078125 82.16796875 C-8.10124843 71.62415563 -8.11904009 61.0803485 -8.12993717 50.53651524 C-8.135166 45.64111501 -8.14226364 40.74573207 -8.15356445 35.8503418 C-8.16439334 31.13008897 -8.17040184 26.40985283 -8.17300224 21.68958855 C-8.17485649 19.88457921 -8.17847709 18.07957083 -8.18385506 16.27456856 C-8.19106552 13.75537231 -8.19211594 11.23624585 -8.19165039 8.71704102 C-8.19524567 7.96322647 -8.19884094 7.20941193 -8.20254517 6.43275452 C-8.1882715 -0.65827902 -6.44999077 0.0102867 0 0 Z M10.921875 17.16796875 C10.921875 23.76796875 10.921875 30.36796875 10.921875 37.16796875 C14.11875 37.27109375 17.315625 37.37421875 20.609375 37.48046875 C21.60799561 37.52598877 22.60661621 37.57150879 23.63549805 37.6184082 C28.08686537 37.68792578 30.28952553 37.61021567 34.02734375 34.99609375 C36.1141057 31.88100993 36.59852073 30.31879705 36.546875 26.60546875 C36.56621094 25.21134766 36.56621094 25.21134766 36.5859375 23.7890625 C36.08386736 21.03282549 36.08386736 21.03282549 34.02734375 18.84375 C29.53948557 16.42200011 25.61356762 16.73548428 20.609375 16.91796875 C15.8140625 17.04171875 15.8140625 17.04171875 10.921875 17.16796875 Z " fill="#010101" transform="translate(208.078125,458.83203125)"/>
<path d="M0 0 C2.60859697 1.74995325 4.97253194 3.58986413 7 6 C7 6.66 7 7.32 7 8 C7.66 8 8.32 8 9 8 C13.75166181 16.31540816 14.94039755 23.46168201 14 33 C13 34 13 34 9.30639648 34.11352539 C7.66128708 34.11336624 6.01617269 34.10766988 4.37109375 34.09765625 C3.07474754 34.09553383 3.07474754 34.09553383 1.75221252 34.09336853 C-1.01939292 34.08775239 -3.7909188 34.07519719 -6.5625 34.0625 C-8.4368478 34.05748708 -10.31119685 34.05292381 -12.18554688 34.04882812 C-16.79039544 34.03777772 -21.39518421 34.0205023 -26 34 C-24.27915266 38.53540415 -24.27915266 38.53540415 -21 42 C-17.27850021 43.24049993 -13.86587605 43.54809207 -10 43 C-6.85655565 41.25364203 -4.53137274 39.53137274 -2 37 C2.98337011 37.30202243 7.54387938 39.91271038 12 42 C11.48935064 46.46818191 10.17871766 48.82128234 7 52 C-1.70128011 57.7401981 -9.56193302 60.01929208 -20 59 C-27.64466527 57.30456959 -33.94432067 54.05305824 -39 48 C-44.42341061 39.34418257 -46.3931762 30.85677682 -44.3515625 20.80859375 C-42.14757947 12.68022898 -39.22085995 6.36275892 -31.98046875 1.69921875 C-30.0188742 0.66778758 -28.06236998 -0.19206125 -26 -1 C-25.05125 -1.4125 -24.1025 -1.825 -23.125 -2.25 C-15.24837761 -4.14038937 -7.38445803 -3.34088168 0 0 Z M-26 18 C-26 18.99 -26 19.98 -26 21 C-18.74 21 -11.48 21 -4 21 C-5.35152097 15.23045122 -5.35152097 15.23045122 -8.1875 13.125 C-15.65836267 10.13665493 -20.56650486 12.56650486 -26 18 Z " fill="#010101" transform="translate(350,484)"/>
<path d="M0 0 C7.50299387 7.86899357 8.7910902 16.34706126 8.73046875 26.9921875 C8.5625 29.6875 8.5625 29.6875 7.5625 30.6875 C4.60544679 30.77618299 1.67184944 30.80270296 -1.28515625 30.78515625 C-2.61479652 30.78303383 -2.61479652 30.78303383 -3.97129822 30.78086853 C-6.81423254 30.77525215 -9.65708931 30.76269691 -12.5 30.75 C-14.42252491 30.74498711 -16.34505104 30.74042384 -18.26757812 30.73632812 C-22.99091549 30.72527741 -27.71419458 30.70800183 -32.4375 30.6875 C-28.92684292 36.29903814 -28.92684292 36.29903814 -23.4375 39.6875 C-19.36382986 40.28364685 -16.32715365 40.09364623 -12.5625 38.375 C-10.2177755 36.69009517 -10.2177755 36.69009517 -8.4375 33.6875 C-2.66371075 34.1686491 1.52109836 35.87217181 6.5625 38.6875 C6.06192848 43.06750076 4.63056466 45.52919815 1.5625 48.6875 C0.5725 48.6875 -0.4175 48.6875 -1.4375 48.6875 C-1.4375 49.3475 -1.4375 50.0075 -1.4375 50.6875 C-10.73489597 55.64764921 -19.22293941 57.30665354 -29.625 54.5 C-37.94130919 51.71919332 -43.30229426 46.75912392 -47.515625 39.1015625 C-49.77887689 34.49809874 -50.09453233 30.44892016 -50 25.375 C-49.98904297 24.54194336 -49.97808594 23.70888672 -49.96679688 22.85058594 C-49.64948517 13.78604817 -47.26162001 6.99562078 -40.5625 0.6875 C-28.80910648 -8.56470055 -12.11157749 -9.21334106 0 0 Z M-29.4375 12.6875 C-30.0975 14.3375 -30.7575 15.9875 -31.4375 17.6875 C-24.1775 17.6875 -16.9175 17.6875 -9.4375 17.6875 C-10.24221377 12.68993659 -10.24221377 12.68993659 -13.4375 9.6875 C-19.82809401 7.557302 -24.77039677 7.60859354 -29.4375 12.6875 Z " fill="#010101" transform="translate(817.4375,487.3125)"/>
<path d="M0 0 C4.46738643 3.25207727 6.45292186 7.90488743 8.11328125 13.00390625 C8.5998074 16.45115849 8.58416194 19.81326678 8.50390625 23.2890625 C8.49824646 24.2307579 8.49258667 25.17245331 8.48675537 26.14268494 C8.46456236 29.11780033 8.4143995 32.09166173 8.36328125 35.06640625 C8.34319413 37.09698768 8.32494726 39.12758819 8.30859375 41.15820312 C8.26475378 46.10724585 8.19584693 51.05536427 8.11328125 56.00390625 C5.48767016 56.08464828 2.86452449 56.14426855 0.23828125 56.19140625 C-0.50808594 56.21654297 -1.25445313 56.24167969 -2.0234375 56.26757812 C-4.19140625 56.296875 -4.19140625 56.296875 -7.88671875 56.00390625 C-8.54671875 55.01390625 -9.20671875 54.02390625 -9.88671875 53.00390625 C-10.93859375 53.68453125 -10.93859375 53.68453125 -12.01171875 54.37890625 C-17.43927206 57.44665377 -22.64444841 58.91127655 -28.88671875 58.00390625 C-32.37427299 56.97934256 -35.73965032 55.83816251 -38.88671875 54.00390625 C-39.38171875 52.51890625 -39.38171875 52.51890625 -39.88671875 51.00390625 C-40.87671875 50.67390625 -41.86671875 50.34390625 -42.88671875 50.00390625 C-45.80353753 43.86323514 -45.64087838 37.66564612 -43.82421875 31.25390625 C-40.75587583 26.10700845 -36.51673256 23.24061567 -30.73046875 21.67578125 C-29.28616721 21.3519234 -27.8380408 21.04468992 -26.38671875 20.75390625 C-25.66613281 20.5940625 -24.94554687 20.43421875 -24.203125 20.26953125 C-19.78568869 19.31095556 -15.36746675 18.59347836 -10.88671875 18.00390625 C-11.26576083 14.71314629 -11.26576083 14.71314629 -12.88671875 12.00390625 C-16.59420169 11.57494128 -20.1866373 11.4924244 -23.88671875 12.00390625 C-26.22302623 14.40249669 -26.22302623 14.40249669 -27.88671875 17.00390625 C-33.16072616 17.98511693 -37.99181343 15.83133757 -42.88671875 14.00390625 C-42.43633104 9.16223839 -41.28699714 6.50722338 -37.88671875 3.00390625 C-37.22671875 3.00390625 -36.56671875 3.00390625 -35.88671875 3.00390625 C-35.88671875 2.34390625 -35.88671875 1.68390625 -35.88671875 1.00390625 C-34.4719374 0.35395328 -33.05480388 -0.29088097 -31.63671875 -0.93359375 C-30.8478125 -1.29324219 -30.05890625 -1.65289062 -29.24609375 -2.0234375 C-19.94288112 -5.85870231 -8.83596672 -4.66495137 0 0 Z M-27.88671875 36.00390625 C-27.92752658 38.00348989 -27.92926231 40.00435879 -27.88671875 42.00390625 C-23.83872531 44.41208753 -20.8042454 44.18746055 -16.23828125 43.6015625 C-13.65548441 43.11969479 -13.65548441 43.11969479 -11.26171875 40.87890625 C-9.58992982 37.38334758 -9.58636736 34.83338647 -9.88671875 31.00390625 C-15.2640122 30.42257723 -23.88354609 32.00073359 -27.88671875 36.00390625 Z " fill="#010101" transform="translate(651.88671875,484.99609375)"/>
<path d="M0 0 C4.81437226 4.56748138 7.135611 10.28051053 7.34057617 16.83374023 C7.34010645 18.65876034 7.32347061 20.48382849 7.29296875 22.30859375 C7.28872391 23.27531509 7.28447906 24.24203644 7.28010559 25.23805237 C7.26340522 28.30482649 7.22576899 31.3709268 7.1875 34.4375 C7.172442 36.52538109 7.15875555 38.61327255 7.14648438 40.70117188 C7.11352999 45.80103815 7.06180751 50.9004051 7 56 C4.18743719 56.02684312 1.37512759 56.04676188 -1.4375 56.0625 C-2.64116211 56.07506836 -2.64116211 56.07506836 -3.86914062 56.08789062 C-5.91295221 56.0965143 -7.95683902 56.0522815 -10 56 C-12.13086442 53.86913558 -11.25960872 49.10833065 -11.31640625 46.15234375 C-11.33718735 45.2659169 -11.35796844 44.37949005 -11.37937927 43.46620178 C-11.444974 40.623383 -11.50380552 37.78046883 -11.5625 34.9375 C-11.6056758 33.01496394 -11.64928978 31.09243766 -11.69335938 29.16992188 C-11.80066543 24.44671332 -11.90190451 19.72340847 -12 15 C-14.7475171 14.27949226 -17.15426378 13.86388384 -20 13.875 C-20.66 13.87242187 -21.32 13.86984375 -22 13.8671875 C-24.10259306 14.00681282 -25.96599295 14.46660284 -28 15 C-30.36518098 23.31059671 -30.19682638 31.44037037 -30.0625 40 C-30.0348611 42.14045221 -30.01021762 44.28083911 -29.99131775 46.42138672 C-29.97353841 48.34219469 -29.94612695 50.26290633 -29.91821289 52.18359375 C-30 55 -30 55 -31 56 C-36.61 56 -42.22 56 -48 56 C-48 36.86 -48 17.72 -48 -2 C-42.72 -2 -37.44 -2 -32 -2 C-31.34 -0.68 -30.68 0.64 -30 2 C-29.57976563 1.53980469 -29.15953125 1.07960938 -28.7265625 0.60546875 C-20.62834421 -6.92477495 -8.80067115 -4.86102053 0 0 Z " fill="#010101" transform="translate(552,485)"/>
<path d="M0 0 C1.58206057 0.00667536 3.16410534 0.0186375 4.74609375 0.03515625 C5.55240234 0.03966797 6.35871094 0.04417969 7.18945312 0.04882812 C9.18753131 0.06065107 11.18557158 0.07858711 13.18359375 0.09765625 C13.19817627 1.2278418 13.21275879 2.35802734 13.2277832 3.52246094 C13.2858006 7.71972124 13.36303312 11.91644698 13.44604492 16.11328125 C13.47927811 17.92894814 13.50731509 19.74471793 13.5300293 21.56054688 C13.56360516 24.17232067 13.61592137 26.78315279 13.671875 29.39453125 C13.67826492 30.20508972 13.68465485 31.01564819 13.6912384 31.85076904 C13.77832527 35.19662397 13.93315806 37.65433143 15.59667969 40.59912109 C18.38452615 43.23170596 21.48919118 43.13504899 25.18359375 43.09765625 C27.58489207 42.8554043 27.58489207 42.8554043 29.18359375 41.09765625 C33.23266344 33.23233837 32.74354203 24.7326323 32.87109375 16.09765625 C32.90431405 14.54424282 32.93880797 12.99085608 32.97460938 11.4375 C33.05897623 7.65770032 33.12603704 3.87795535 33.18359375 0.09765625 C35.82949389 0.07080946 38.47512471 0.05089268 41.12109375 0.03515625 C41.87583984 0.02677734 42.63058594 0.01839844 43.40820312 0.00976562 C45.33353688 0.00113184 47.25894956 0.04541292 49.18359375 0.09765625 C50.18359375 1.09765625 50.18359375 1.09765625 50.30384827 3.3818512 C50.30162766 4.39222946 50.29940704 5.40260773 50.29711914 6.44360352 C50.29704361 7.58471085 50.29696808 8.72581818 50.29689026 9.90150452 C50.29172897 11.14314865 50.28656769 12.38479279 50.28125 13.6640625 C50.27983505 14.92782211 50.2784201 16.19158173 50.27696228 17.49363708 C50.27229957 20.85890514 50.26330855 24.22410615 50.2522583 27.58935547 C50.24204221 31.02115295 50.23746424 34.45295734 50.23242188 37.88476562 C50.22136755 44.62241689 50.20409012 51.36002736 50.18359375 58.09765625 C44.57359375 58.09765625 38.96359375 58.09765625 33.18359375 58.09765625 C32.85359375 57.10765625 32.52359375 56.11765625 32.18359375 55.09765625 C31.46171875 55.55140625 30.73984375 56.00515625 29.99609375 56.47265625 C23.68191154 60.12085042 18.19247119 61.24459062 11 59.59765625 C4.71813736 57.50766036 0.88975355 53.49788059 -2.81640625 48.09765625 C-5.93583649 39.87561669 -5.08658658 30.2365382 -5.0222168 21.59008789 C-5.00372474 19.00982997 -5.00170917 16.42992728 -5.00195312 13.84960938 C-4.99704545 12.21223645 -4.99122044 10.57486597 -4.984375 8.9375 C-4.98326218 8.164702 -4.98214935 7.39190399 -4.98100281 6.59568787 C-4.92273774 0.12596565 -4.92273774 0.12596565 0 0 Z " fill="#010101" transform="translate(442.81640625,482.90234375)"/>
<path d="M0 0 C2.81256281 -0.02684312 5.62487241 -0.04676188 8.4375 -0.0625 C9.23994141 -0.07087891 10.04238281 -0.07925781 10.86914062 -0.08789062 C12.91295221 -0.0965143 14.95683902 -0.0522815 17 0 C18 1 18 1 18.09765625 4.37890625 C18.09098369 5.77347077 18.07902532 7.16801743 18.0625 8.5625 C18.05798828 9.27341797 18.05347656 9.98433594 18.04882812 10.71679688 C18.03700864 12.47790013 18.01907263 14.23896036 18 16 C18.78246094 15.98839844 19.56492187 15.97679687 20.37109375 15.96484375 C21.38300781 15.95582031 22.39492188 15.94679688 23.4375 15.9375 C24.44683594 15.92589844 25.45617187 15.91429687 26.49609375 15.90234375 C29 16 29 16 30 17 C30.07258946 19.18639453 30.08373783 21.37500389 30.0625 23.5625 C30.05347656 24.76003906 30.04445313 25.95757812 30.03515625 27.19140625 C30.02355469 28.11824219 30.01195312 29.04507812 30 30 C27.56612247 31.21693876 25.58161154 31.31959896 22.875 31.5625 C21.96492187 31.64628906 21.05484375 31.73007812 20.1171875 31.81640625 C19.41851563 31.87699219 18.71984375 31.93757813 18 32 C17.94154804 35.37492629 17.90625258 38.74972087 17.875 42.125 C17.85824219 43.07632813 17.84148438 44.02765625 17.82421875 45.0078125 C17.78895472 50.08583255 17.96666383 54.24487525 20 59 C23.3 59.33 26.6 59.66 30 60 C30 64.62 30 69.24 30 74 C24.59585362 76.70207319 15.11513306 75.74943781 9.3046875 74.3515625 C5.40503292 72.61673518 2.56000891 70.21712046 0.6796875 66.2734375 C-2.64312599 55.15919929 -0.78966962 42.39553998 0 31 C-2.97 31 -5.94 31 -9 31 C-10.37252731 28.25494537 -10.13229255 25.99672588 -10.125 22.9375 C-10.12757813 21.85339844 -10.13015625 20.76929688 -10.1328125 19.65234375 C-10 17 -10 17 -9 16 C-5.99668982 15.85806663 -3.00782866 15.95763622 0 16 C0 10.72 0 5.44 0 0 Z " fill="#010101" transform="translate(573,467)"/>
<path d="M0 0 C0.19386492 2.64551056 0.38038267 5.29117783 0.5625 7.9375 C0.64661133 9.06961914 0.64661133 9.06961914 0.73242188 10.22460938 C0.86176157 12.14745958 0.93516912 14.07389548 1 16 C-1.33867072 18.33867072 -6.72634926 17.91784747 -9.8984375 18.3046875 C-13.06331894 19.01419493 -14.15628396 19.40374681 -16 22 C-17.17803956 25.53411867 -17.21017649 28.79492319 -17.28125 32.4765625 C-17.29965942 33.20241547 -17.31806885 33.92826843 -17.33703613 34.67611694 C-17.41569698 37.78067354 -17.48366375 40.88544124 -17.55224609 43.99023438 C-17.60384101 46.25662395 -17.66112057 48.52281967 -17.71875 50.7890625 C-17.73232544 51.49632477 -17.74590088 52.20358704 -17.7598877 52.93228149 C-17.88714178 57.88714178 -17.88714178 57.88714178 -19 59 C-24.61 59 -30.22 59 -36 59 C-36 39.86 -36 20.72 -36 1 C-30.39 1 -24.78 1 -19 1 C-18.34 2.32 -17.68 3.64 -17 5 C-16.59523438 4.54109375 -16.19046875 4.0821875 -15.7734375 3.609375 C-13.7749258 1.79574765 -12.17422783 1.10264276 -9.625 0.25 C-8.87476563 -0.01296875 -8.12453125 -0.2759375 -7.3515625 -0.546875 C-4.61705077 -1.07379088 -2.67405093 -0.6992218 0 0 Z " fill="#010101" transform="translate(304,482)"/>
</svg>
