<?xml version="1.0" encoding="utf-8" ?><svg xmlns="http://www.w3.org/2000/svg" xmlns:xlink="http://www.w3.org/1999/xlink" width="1024" height="1024" viewBox="0 0 1024 1024"><path fill="#F5F5F5" d="M0 0L71.3491 0L149.01 0L226.525 0L304.976 0L382.526 0L460.966 0L694.562 0L772.474 0L849.987 0L928.458 0L1006.54 0L1024 0L1024 71.4512L1024 145.024L1024 218.948L1024 513.514L1024 587.237L1024 660.498L1024 733.993L1024 807.427L1024 881.46L1024 954.67L1024 1024L1006.48 1024L928.459 1024L850.19 1024L772.252 1024L538.5 1024L305 1024L226.517 1024L148.974 1024L71.1578 1024L0 1024L0 954.896L0 881.411L0 807.505L0 660.755L0 587.404L0 513.608L0 439.536L0 366.26L0 292.401L0 218.892L0 145.045L0 71.4994L0 0Z"/><path d="M262.48 190.09C268.746 190.592 278.989 190.315 285.543 190.318L327.325 190.335L458.563 190.38C546.242 190.408 642.799 182.723 709.652 249.886C784.568 325.15 785.192 470.581 709.218 545.306C647.569 605.941 570.304 609.14 489.906 609.136L398.665 609.069L398.602 764.727C398.561 793.754 399.174 823.679 398.788 852.543L258.711 852.498L258.683 449.448L258.695 274.764L258.698 224.45C258.654 213.546 258.323 201.606 258.735 190.839C260.075 189.971 260.707 190.198 262.48 190.09Z"/><path fill="#FBFBFB" d="M398.593 304.892C399.145 304.868 399.697 304.853 400.25 304.847L484.859 304.855C524.971 304.849 573.501 300.073 604.676 330.425C623.224 348.482 629.12 374.386 629.189 399.512C629.266 427.16 623.14 450.067 603.145 470.124C570.958 500.64 524.334 495.929 483.404 496.005L398.557 496.082L398.593 304.892Z"/><path fill="#FBFBFB" d="M772.079 439.382C798.076 439.185 824.075 439.179 850.072 439.364C850.868 462.48 850.412 490.546 850.334 513.987C856.327 513.213 871.406 513.631 878.229 513.644L928.245 513.589C928.237 537.566 928.777 563.498 928.259 587.301C953.296 587.937 981.312 587.281 1006.64 587.177C1005.72 564.752 1006.51 536.59 1006.54 513.689C1011.8 513.415 1018.62 513.55 1024 513.514L1024 587.237L1024 660.498L1024 733.993L1024 807.427L1024 881.46L1024 954.67L1024 1024L1006.48 1024L928.459 1024L850.19 1024L772.252 1024L538.5 1024C538.262 1009.76 539.043 992.91 539.036 978.101L538.591 881.466L489.534 881.424C480.699 881.419 469.455 881.748 460.856 881.094C459.476 865.783 461.103 848.309 460.518 832.778C460.232 825.193 460.324 815.26 460.883 807.755C486.858 807.816 512.833 807.735 538.807 807.513C537.686 785.903 538.525 756.12 538.562 734.036C555.82 733.596 573.503 734.007 590.779 733.81C599.132 733.715 608.39 734.174 616.654 733.651C616.802 758.25 616.743 782.85 616.476 807.448L538.935 807.548L538.82 881.755L587.92 881.726C596.148 881.719 607.663 881.371 615.674 881.983C616.536 883.466 616.223 884.495 616.274 886.481C616.755 885.889 616.074 883.78 616.84 881.659C624.623 881.142 635.941 881.486 643.954 881.488L694.216 881.492L850.162 881.386C849.983 877.193 849.977 872.955 850.017 868.758C850.21 848.397 849.749 827.926 850.155 807.578C844.161 807.058 830.599 807.434 824.164 807.443L772.044 807.504C771.585 783.497 771.905 758.072 772.057 734.016C796.713 733.428 825.389 733.652 850.053 733.964L850.045 660.746C825.458 661.36 796.81 661.037 772.138 660.669C772.221 663.049 772.327 663.846 771.883 666.138C771.309 664.622 771.499 662.719 771.5 661C761.709 661.026 751.918 660.996 742.128 660.91C744.931 660.039 767.712 660.541 772.043 660.545C771.68 636.454 772.009 611.515 772.061 587.392C797.353 587.907 824.609 587.317 850.053 587.278L850.124 513.713C841.646 513.482 832.133 513.783 823.569 513.79C806.394 513.741 789.219 513.779 772.045 513.906L772.079 439.382Z"/><path fill="#FBFBFB" d="M0 0L71.3491 0L149.01 0L226.525 0L304.976 0L382.526 0L460.966 0C460.663 23.7471 460.589 47.4965 460.745 71.245C435.396 71.2487 407.674 71.8758 382.607 71.3338C382.754 95.9569 382.715 120.581 382.49 145.203L460.859 145.034C460.876 150.737 461.523 186.818 460.568 189.657L458.563 190.38L327.325 190.335L285.543 190.318C278.989 190.315 268.746 190.592 262.48 190.09L260.491 189.704C264.042 189.279 271.769 189.483 275.624 189.483L304.5 189.5L304.5 145.5C281.289 145.513 255.215 146.066 232.24 145.331C235.761 144.762 250.798 145.018 255.011 145.018L304.95 145.035C304.313 137.368 304.656 125.606 304.649 117.569C304.575 102.147 304.617 86.7248 304.772 71.3035L226.553 71.3943L226.664 145.064C201.147 145.548 174.574 145.087 148.962 145.036L148.835 219.008L226.467 218.97C226.536 243.133 226.917 268.223 226.444 292.332C201.576 292.679 173.771 292.802 148.957 292.367L148.93 341.311C148.932 348.103 149.314 359.8 148.876 366.278L71.4057 366.254C71.45 390.158 71.8895 415.714 71.3094 439.516C96.0642 439.573 124.345 440.114 148.945 439.497L148.954 513.804C174.052 513.106 202.179 514.612 226.632 513.503C226.641 537.744 226.911 562.933 226.461 587.12C204.797 587.605 183.03 586.988 161.355 587.356C157.212 587.426 153.06 587.36 148.918 587.24L148.745 660.517C139.024 660.977 128.219 660.756 118.429 660.757L71.5046 660.685C71.2223 636.227 71.1818 611.767 71.3831 587.309C66.9985 586.921 53.6854 587.272 48.7095 587.271C32.4729 587.218 16.2361 587.262 0 587.404L0 513.608L0 439.536L0 366.26L0 292.401L0 218.892L0 145.045L0 71.4994L0 0Z"/><path fill="#FBFBFB" d="M694.562 0L772.474 0L849.987 0L928.458 0L1006.54 0L1024 0L1024 71.4512L1024 145.024L1024 218.948C1018.19 218.931 1012.38 218.955 1006.58 219.02C1006.13 195.337 1006.27 168.756 1006.7 145.053C981.143 145.328 953.934 145.152 928.38 145.012L928.245 218.732C902.74 219.344 875.709 218.948 850.09 218.962C849.613 196.224 849.653 167.889 850.164 145.077L772.026 145.003L772.053 218.948C746.461 218.606 720.198 218.862 694.575 218.951C694.072 194.766 694.485 169.342 694.518 145.086C668.899 145.467 642.257 145.084 616.551 145.046C615.764 121.784 616.315 94.7647 616.487 71.3153C640.207 71.8183 670.948 71.8995 694.578 71.258C693.863 48.8924 694.526 22.624 694.562 0Z"/><path fill="#FBFBFB" d="M0 660.755L71.4649 660.755L71.5205 759.479C71.5046 774.755 71.9403 792.548 71.3717 807.492L121.681 807.484C130.158 807.497 140.604 807.796 148.95 807.452L148.922 881.546L199.219 881.49C207.278 881.479 218.855 881.816 226.535 881.259C226.415 856.688 226.418 832.116 226.543 807.546L256.385 807.562C253.757 808.379 231.184 807.994 227 808L226.549 954.966C250.471 954.131 280.563 954.469 304.745 954.837L305 1024L226.517 1024L148.974 1024L71.1578 1024L0 1024L0 954.896L0 881.411L0 807.505L0 660.755Z"/><path fill="#FBFBFB" d="M772.053 218.948C797.887 219.348 824.277 218.925 850.169 219.015L850.246 266.24C850.236 274.541 850.442 284.202 850.075 292.404L904.922 292.336C907.7 292.339 924.435 292.224 926.221 292.624C922.185 293.287 907.979 293.026 903.351 293.026L857.5 293L850.5 293L850.513 341.338C850.512 345.446 850.776 359.92 850.206 363.177C849.394 341.039 850.031 314.747 850.058 292.301C824.157 292.508 798.256 292.489 772.356 292.245C771.643 286.263 772.058 274.346 772.024 267.86C771.937 251.584 772.209 235.234 772.053 218.948Z"/><path fill="#FBFBFB" d="M148.876 366.278C162.068 366.734 176.394 366.398 189.693 366.419C201.619 366.438 214.881 366.728 226.733 366.333C226.555 389.872 227.327 416.319 226.565 439.41C200.879 439.455 174.468 439.808 148.851 439.465C148.689 436.626 148.56 433.747 148.601 430.904C148.915 409.437 148.14 387.717 148.876 366.278Z"/><path fill="#FBFBFB" d="M150.038 734.213L197.13 734.476C205.276 734.493 216.832 734.731 224.845 734.203C225.893 734.662 226.673 734.702 226.685 735.741C226.75 741.469 226.669 748.309 226.647 753.908L226.585 807.217C219.378 807.829 206.15 807.487 198.549 807.474L148.95 807.452C148.222 798.844 148.928 785.201 148.769 776.159C148.546 763.371 148.818 750.034 148.851 737.231C148.856 735.317 148.998 735.166 150.038 734.213Z"/><path fill="#DFDEDD" d="M150.038 734.213C152.729 733.322 219.2 732.816 224.741 733.611L224.845 734.203C216.832 734.731 205.276 734.493 197.13 734.476L150.038 734.213Z"/></svg>